<svg width="48" height="48" viewBox="0 0 48 48" fill="none" xmlns="http://www.w3.org/2000/svg">
<rect width="48" height="48" rx="24" fill="#FAFAFA"/>
<path d="M42.4717 20.0151H40.9846V19.9385H24.3693V27.3231H34.8028C33.2806 31.6219 29.1905 34.7077 24.3693 34.7077C18.252 34.7077 13.2923 29.748 13.2923 23.6308C13.2923 17.5136 18.252 12.5539 24.3693 12.5539C27.1929 12.5539 29.7619 13.6191 31.7179 15.3591L36.9397 10.1373C33.6425 7.06433 29.232 5.16925 24.3693 5.16925C14.1739 5.16925 5.90771 13.4354 5.90771 23.6308C5.90771 33.8262 14.1739 42.0923 24.3693 42.0923C34.5646 42.0923 42.8308 33.8262 42.8308 23.6308C42.8308 22.3929 42.7034 21.1846 42.4717 20.0151Z" fill="#FFC107"/>
<path d="M8.03632 15.0379L14.1019 19.4862C15.7431 15.4228 19.7179 12.5539 24.3692 12.5539C27.1929 12.5539 29.7619 13.6191 31.7179 15.3591L36.9397 10.1373C33.6425 7.06433 29.232 5.16925 24.3692 5.16925C17.2782 5.16925 11.1286 9.17264 8.03632 15.0379Z" fill="#FF3D00"/>
<path d="M24.3693 42.0923C29.1379 42.0923 33.4708 40.2674 36.7468 37.2997L31.0329 32.4646C29.1171 33.9216 26.7761 34.7096 24.3693 34.7077C19.5674 34.7077 15.4902 31.6458 13.9542 27.3729L7.93387 32.0114C10.9893 37.9902 17.1942 42.0923 24.3693 42.0923Z" fill="#4CAF50"/>
<path d="M42.4717 20.0151H40.9846V19.9385H24.3692V27.3231H34.8028C34.0747 29.369 32.7631 31.1568 31.0302 32.4656L31.0329 32.4637L36.7468 37.2988C36.3425 37.6662 42.8308 32.8616 42.8308 23.6308C42.8308 22.3929 42.7034 21.1846 42.4717 20.0151Z" fill="#1976D2"/>
</svg>
