<svg width="48" height="48" viewBox="0 0 48 48" fill="none" xmlns="http://www.w3.org/2000/svg">
<rect width="48" height="48" rx="24" fill="#1DA1F2"/>
<path d="M42.8308 14.3805C41.5864 14.9318 40.2665 15.2936 38.915 15.454C40.3228 14.6103 41.4037 13.2742 41.9126 11.6822C40.5744 12.4764 39.1102 13.0359 37.5834 13.3366C36.3397 12.0117 34.568 11.1836 32.607 11.1836C28.8418 11.1836 25.7891 14.2362 25.7891 18.0011C25.7891 18.5355 25.8495 19.0558 25.9656 19.5549C20.2995 19.2705 15.276 16.5564 11.9133 12.4316C11.3266 13.4385 10.9904 14.6098 10.9904 15.859C10.9904 18.2244 12.1941 20.3111 14.0233 21.5337C12.9407 21.4998 11.8818 21.2074 10.9352 20.6809C10.9348 20.7094 10.9348 20.738 10.9348 20.7667C10.9348 24.0699 13.2849 26.8255 16.4036 27.4518C15.3997 27.7248 14.3466 27.7648 13.3248 27.5686C14.1923 30.2772 16.7102 32.2482 19.6935 32.3033C17.3602 34.1318 14.4204 35.2218 11.2264 35.2218C10.676 35.2218 10.1334 35.1895 9.60001 35.1265C12.6171 37.0609 16.2007 38.1896 20.0508 38.1896C32.5912 38.1896 39.4485 27.801 39.4485 18.7918C39.4485 18.4961 39.442 18.2021 39.4288 17.9097C40.7635 16.9449 41.9155 15.7498 42.8308 14.3805Z" fill="#FAFAFA"/>
</svg>
