<svg width="45" height="16" viewBox="0 0 45 16" fill="none" xmlns="http://www.w3.org/2000/svg">
<path d="M0.134766 13.6914C0.128255 13.2487 0.27474 12.8841 0.574219 12.5977C0.880208 12.3112 1.2513 12.168 1.6875 12.168C2.10417 12.1615 2.46224 12.2917 2.76172 12.5586C3.06771 12.819 3.22396 13.1641 3.23047 13.5938C3.23698 14.0365 3.08724 14.401 2.78125 14.6875C2.48177 14.974 2.11393 15.1172 1.67773 15.1172C1.26107 15.1237 0.89974 14.9967 0.59375 14.7363C0.294271 14.4694 0.141276 14.1211 0.134766 13.6914ZM8.01562 0.78125L13.0254 0.791016C13.8913 0.804036 14.6758 0.963542 15.3789 1.26953C16.0885 1.57552 16.6387 2.03451 17.0293 2.64648C17.4264 3.25846 17.5924 4.03646 17.5273 4.98047C17.4622 5.75521 17.2734 6.40951 16.9609 6.94336C16.6549 7.47721 16.2415 7.92969 15.7207 8.30078C15.2064 8.67188 14.6139 8.99089 13.9434 9.25781L12.9473 9.73633H8.31836L8.70898 7.45117L11.8926 7.4707C12.3678 7.46419 12.8008 7.37305 13.1914 7.19727C13.582 7.02148 13.9043 6.76758 14.1582 6.43555C14.4186 6.09701 14.5814 5.68685 14.6465 5.20508C14.7051 4.7819 14.6758 4.41406 14.5586 4.10156C14.4479 3.78906 14.2559 3.54492 13.9824 3.36914C13.709 3.19336 13.3607 3.09896 12.9375 3.08594L10.4863 3.07617L8.41602 15H5.55469L8.01562 0.78125ZM13.3379 15L11.2871 8.66211L14.168 8.64258L16.3848 14.8438V15H13.3379ZM28.084 0.78125H30.9355L29.334 10.166C29.1842 11.2207 28.8359 12.1289 28.2891 12.8906C27.7487 13.6458 27.0521 14.2253 26.1992 14.6289C25.3529 15.026 24.3991 15.2181 23.3379 15.2051C22.3483 15.1855 21.4857 14.9707 20.75 14.5605C20.0208 14.1439 19.474 13.5645 19.1094 12.8223C18.7448 12.0736 18.6243 11.1914 18.748 10.1758L20.3496 0.78125H23.2012L21.6094 10.1855C21.5508 10.6738 21.5671 11.123 21.6582 11.5332C21.7559 11.9368 21.9512 12.2656 22.2441 12.5195C22.5436 12.7669 22.9668 12.8971 23.5137 12.9102C24.0931 12.9297 24.5879 12.8255 24.998 12.5977C25.4082 12.3698 25.737 12.0475 25.9844 11.6309C26.2318 11.2077 26.3978 10.7227 26.4824 10.1758L28.084 0.78125ZM44.5 0.78125L42.0293 15H39.2559L35.3203 5.36133L33.6504 15H30.7891L33.25 0.78125H36.0332L39.9785 10.4297L41.6484 0.78125H44.5Z" fill="#FAFAFA"/>
</svg>
