<svg width="48" height="49" viewBox="0 0 48 49" fill="none" xmlns="http://www.w3.org/2000/svg">
<g clip-path="url(#clip0_402_296)">
<ellipse cx="24" cy="24.375" rx="24" ry="24.375" fill="#FAFAFA"/>
<path d="M48 24.5233C48 10.9762 37.2581 0 24 0C10.7419 0 0 10.9762 0 24.5233C0 36.7632 8.77645 46.9088 20.25 48.75V31.6123H14.1532V24.5233H20.25V19.1203C20.25 12.9746 23.8306 9.57992 29.3148 9.57992C31.9413 9.57992 34.6877 10.0585 34.6877 10.0585V16.0905H31.6606C28.68 16.0905 27.75 17.9811 27.75 19.9203V24.5233H34.4061L33.3416 31.6123H27.75V48.75C39.2235 46.9088 48 36.7632 48 24.5233Z" fill="#1778F2"/>
</g>
<defs>
<clipPath id="clip0_402_296">
<rect width="48" height="48.75" fill="white"/>
</clipPath>
</defs>
</svg>
